<?xml version="1.0" standalone="no"?>
<!DOCTYPE svg PUBLIC "-//W3C//DTD SVG 20010904//EN"
 "http://www.w3.org/TR/2001/REC-SVG-20010904/DTD/svg10.dtd">
<svg version="1.0" xmlns="http://www.w3.org/2000/svg"
 width="499.000000pt" height="499.000000pt" viewBox="0 0 499.000000 499.000000"
 preserveAspectRatio="xMidYMid meet">

<g transform="translate(0.000000,499.000000) scale(0.100000,-0.100000)"
fill="#000000" stroke="none">
<path d="M2471 4665 c-84 -50 -215 -100 -376 -144 -382 -106 -515 -167 -622
-285 -25 -28 -59 -80 -76 -116 -32 -72 -40 -80 -78 -80 -49 0 -151 -40 -219
-85 -87 -58 -182 -160 -300 -322 -156 -213 -253 -323 -358 -404 l-33 -25 18
-64 c16 -58 18 -106 16 -440 -3 -401 5 -504 47 -611 27 -66 93 -161 136 -194
l34 -26 0 -128 c0 -134 15 -209 59 -291 11 -19 28 -53 39 -75 11 -22 74 -118
140 -212 117 -166 222 -341 222 -369 0 -7 4 -15 9 -18 4 -3 14 -26 21 -51 11
-39 16 -45 39 -45 61 0 216 -36 356 -82 83 -28 155 -54 160 -58 25 -20 321
-111 392 -121 144 -21 264 -1 363 60 l46 28 45 -23 c62 -31 196 -64 261 -64
85 0 351 64 482 116 83 32 276 74 376 80 l102 7 15 36 c51 129 102 209 278
436 205 264 251 339 290 471 21 72 24 182 6 246 l-13 47 49 58 c70 81 120 180
143 278 6 28 15 178 20 335 9 289 25 446 56 534 l17 48 -71 67 c-92 86 -137
144 -284 364 -145 219 -199 288 -283 365 -94 86 -222 142 -324 142 -25 0 -32
8 -57 58 -51 107 -203 235 -339 288 -109 43 -206 78 -245 90 -152 45 -323 120
-415 183 -33 22 -62 40 -65 40 -3 -1 -38 -21 -79 -44z m121 -11 c51 -42 244
-130 408 -185 224 -75 294 -103 374 -150 91 -54 184 -150 222 -228 26 -54 32
-61 58 -61 42 0 154 -28 201 -51 62 -29 149 -102 210 -176 31 -38 122 -166
203 -287 105 -157 173 -246 240 -317 51 -54 91 -103 88 -108 -7 -11 -22 -78
-36 -166 -6 -33 -15 -197 -20 -365 -8 -281 -11 -311 -34 -388 -33 -109 -78
-191 -138 -252 -47 -48 -49 -52 -39 -83 17 -56 22 -140 12 -209 -20 -137 -104
-282 -325 -558 -93 -116 -175 -239 -225 -338 -41 -81 -42 -82 -79 -82 -43 0
-179 -24 -267 -47 -70 -18 -281 -82 -310 -94 -11 -4 -49 -16 -85 -25 -172 -44
-315 -43 -448 6 -45 16 -91 30 -101 30 -9 0 -42 -13 -72 -30 -110 -59 -211
-72 -347 -44 -78 16 -209 52 -227 63 -5 3 -30 13 -55 22 -25 9 -76 28 -115 42
-38 14 -101 37 -140 51 -93 34 -214 64 -298 72 l-67 7 -15 49 c-13 45 -81 181
-123 246 -9 15 -56 82 -104 150 -49 67 -88 124 -88 127 0 3 -16 27 -35 54 -50
69 -114 209 -126 278 -7 33 -9 104 -6 163 l5 106 -54 47 c-63 56 -112 136
-139 227 -18 60 -20 97 -20 480 0 368 -3 423 -19 488 l-18 74 58 51 c100 89
142 136 276 317 165 220 235 300 312 354 83 59 129 81 206 96 79 16 94 28 131
104 40 82 89 138 167 189 104 69 195 103 542 202 91 26 170 51 175 55 6 4 21
11 35 15 39 11 132 55 170 81 43 30 45 30 82 -2z"/>
<path d="M2400 4126 c0 -88 6 -102 40 -91 15 5 20 16 21 43 l1 37 10 -37 c14
-54 44 -52 53 2 4 22 10 40 14 40 3 0 5 -18 3 -40 -4 -39 -3 -40 27 -40 29 0
31 2 31 39 0 21 3 59 6 85 l7 46 -41 0 c-41 0 -42 -1 -53 -45 -6 -25 -15 -45
-19 -45 -4 0 -11 20 -14 45 -7 45 -8 45 -47 45 l-39 0 0 -84z"/>
<path d="M2717 4193 c-14 -14 -6 -32 16 -35 24 -3 25 -12 13 -90 l-7 -48 29 0
c28 0 31 3 37 48 8 61 18 76 44 69 14 -3 21 0 21 9 0 8 0 17 1 22 1 16 -140
39 -154 25z"/>
<path d="M2234 4113 l-16 -78 -48 -1 -48 -2 -7 54 c-7 60 -12 66 -43 57 -27
-7 -27 -23 -6 -109 15 -59 19 -65 38 -60 12 4 51 14 87 24 36 9 74 25 83 35
19 19 42 22 51 7 6 -10 55 -14 55 -4 0 3 -14 39 -31 80 -30 71 -32 74 -64 74
l-34 0 -17 -77z m66 -13 c0 -11 -4 -20 -10 -20 -5 0 -10 9 -10 20 0 11 5 20
10 20 6 0 10 -9 10 -20z"/>
<path d="M2891 4133 c-16 -62 -30 -127 -27 -130 8 -8 122 -40 129 -36 4 2 7
12 7 22 0 12 -13 22 -41 30 -47 14 -43 26 9 26 47 0 52 20 7 35 -22 7 -33 16
-28 21 6 6 22 5 42 -2 35 -12 58 -2 48 23 -4 11 -106 48 -131 48 -3 0 -10 -17
-15 -37z"/>
<path d="M3075 4110 c-9 -14 -55 -153 -52 -155 1 -1 12 -8 25 -14 20 -10 23
-9 32 14 10 27 17 30 38 16 8 -5 11 -17 7 -34 -5 -20 -2 -28 15 -37 29 -16 42
-2 42 44 0 23 5 36 13 36 25 0 33 46 13 73 -18 23 -126 69 -133 57z m75 -70
c11 -6 12 -12 4 -20 -13 -13 -44 -2 -44 16 0 16 18 18 40 4z"/>
<path d="M1925 4096 c-41 -18 -57 -40 -53 -73 3 -26 6 -28 52 -28 31 0 51 -5
53 -12 3 -9 -8 -13 -36 -13 -29 0 -44 -5 -48 -16 -14 -36 54 -45 105 -14 38
23 47 40 38 75 -6 23 -11 25 -59 25 -37 0 -48 3 -37 10 8 5 25 10 37 10 30 0
40 20 18 37 -23 16 -32 16 -70 -1z"/>
<path d="M1789 4030 c-15 -9 -14 -17 11 -82 28 -73 42 -86 70 -69 12 8 10 20
-12 83 -25 73 -39 86 -69 68z"/>
<path d="M3225 3960 c-41 -82 -42 -86 -13 -96 15 -4 25 -1 34 10 11 16 15 16
43 2 39 -21 64 -20 84 2 25 28 21 65 -10 94 -25 23 -84 58 -97 58 -3 0 -22
-31 -41 -70z m96 -11 c23 -12 16 -29 -11 -29 -21 0 -34 15 -25 30 8 13 12 12
36 -1z"/>
<path d="M1578 3902 c-32 -20 -58 -41 -58 -45 0 -15 75 -137 84 -137 5 0 17 7
27 16 15 13 16 20 6 35 -9 15 -8 22 6 36 17 17 19 17 35 -5 16 -21 19 -21 39
-7 19 13 21 19 11 40 -6 14 -17 25 -25 25 -8 0 -13 11 -13 28 0 31 -16 52 -39
52 -9 0 -42 -17 -73 -38z m60 -34 c-6 -16 -36 -34 -44 -25 -9 9 15 37 33 37 8
0 13 -5 11 -12z"/>
<path d="M3388 3859 c-38 -28 -68 -54 -68 -59 0 -10 40 -25 58 -21 19 3 42
-18 42 -39 0 -9 9 -25 19 -34 18 -17 20 -17 29 1 5 10 17 52 26 93 17 74 17
75 -4 92 -12 10 -25 18 -29 18 -3 0 -36 -23 -73 -51z m57 -48 c-4 -12 -12 -18
-21 -14 -13 5 -13 8 2 24 20 23 28 18 19 -10z"/>
<path d="M3531 3744 c-58 -76 -58 -76 23 -135 49 -36 70 -36 107 0 49 50 31
118 -48 178 l-31 24 -51 -67z m97 -39 c10 -21 9 -28 -8 -45 -24 -24 -30 -24
-54 -7 -17 12 -16 15 9 45 32 39 38 39 53 7z"/>
<path d="M1406 3771 c-15 -17 -15 -23 6 -102 12 -46 23 -86 25 -88 6 -9 42 32
45 52 3 21 15 29 62 43 16 5 31 14 33 20 4 13 -116 94 -139 94 -8 0 -22 -8
-32 -19z m72 -77 c-10 -10 -28 6 -28 24 0 15 1 15 17 -1 9 -9 14 -19 11 -23z"/>
<path d="M2068 3673 c-31 -36 -70 -114 -62 -122 13 -12 466 -241 476 -241 35
0 -22 35 -204 124 -117 58 -222 111 -232 119 -19 14 -19 16 17 76 34 58 37 81
5 44z"/>
<path d="M2912 3668 c50 -79 60 -100 51 -109 -5 -5 -109 -58 -231 -119 -122
-60 -222 -114 -222 -120 0 -5 3 -10 8 -10 4 0 113 54 242 119 145 74 235 125
234 134 -2 21 -72 127 -85 127 -8 0 -7 -8 3 -22z"/>
<path d="M2196 3636 c-15 -26 -24 -50 -21 -56 3 -5 49 -23 103 -40 94 -31 153
-61 200 -103 l22 -21 28 26 c43 40 90 63 194 98 54 17 101 36 104 41 5 9 -39
84 -56 94 -9 6 -137 -34 -185 -57 -22 -11 -50 -32 -62 -46 l-23 -27 -22 27
c-27 31 -84 61 -158 81 -30 9 -64 19 -76 22 -17 5 -26 -2 -48 -39z"/>
<path d="M2119 3614 c-22 -30 -39 -57 -37 -60 6 -5 328 -164 354 -174 11 -5
27 -4 35 1 11 8 4 19 -33 53 -47 43 -106 72 -208 100 -30 8 -64 22 -75 29 -19
14 -19 16 8 56 31 47 32 51 12 51 -8 0 -33 -25 -56 -56z"/>
<path d="M2829 3629 c17 -23 31 -46 31 -50 0 -11 -59 -36 -136 -58 -106 -30
-223 -116 -196 -143 9 -9 55 10 194 77 101 49 186 92 191 95 13 11 -67 115
-91 118 -23 3 -22 2 7 -39z"/>
<path d="M1254 3624 c-40 -42 -48 -98 -14 -109 19 -6 73 16 85 35 9 15 25 12
25 -4 0 -7 -14 -19 -30 -26 -31 -13 -54 -42 -43 -54 22 -22 91 21 118 74 17
32 10 67 -16 75 -18 6 -73 -16 -84 -35 -8 -13 -25 -13 -25 -1 0 5 16 19 35 31
42 26 46 50 9 50 -18 0 -38 -12 -60 -36z"/>
<path d="M3693 3599 c-24 -28 -43 -57 -43 -64 0 -48 64 -125 103 -125 21 0
107 59 114 79 2 3 -6 17 -16 30 l-19 24 -46 -38 -47 -38 -21 21 -21 21 41 42
c23 23 42 47 42 54 0 11 -31 45 -41 45 -2 0 -23 -23 -46 -51z"/>
<path d="M1122 3460 c-18 -30 -15 -44 24 -122 l36 -72 20 24 c10 13 16 30 14
37 -8 19 23 63 43 63 20 0 41 19 41 36 0 11 -116 54 -148 54 -9 0 -23 -9 -30
-20z m78 -50 c11 -7 12 -12 3 -21 -13 -13 -33 -4 -33 17 0 16 9 18 30 4z"/>
<path d="M2273 3350 c-18 -11 -33 -23 -34 -27 0 -5 -2 -16 -4 -25 -5 -27 6
-28 60 -2 42 20 45 23 20 20 -16 -2 -39 -6 -50 -10 l-20 -8 20 17 c27 22 64
30 77 17 18 -18 -14 -45 -101 -91 -74 -38 -125 -91 -102 -106 10 -6 331 150
331 161 0 5 -146 74 -158 74 -4 0 -22 -9 -39 -20z"/>
<path d="M2602 3335 c-40 -19 -72 -37 -72 -40 0 -5 315 -165 325 -165 3 0 5 8
5 18 -1 29 -32 58 -107 97 -76 39 -109 67 -98 84 9 15 31 14 66 -5 42 -21 31
-28 -14 -9 -20 8 -38 11 -41 6 -6 -9 89 -53 97 -45 2 3 2 16 -1 30 -4 24 -53
64 -77 64 -6 0 -43 -16 -83 -35z"/>
<path d="M3853 3322 c-35 -8 -63 -21 -63 -27 0 -14 32 -45 48 -45 12 0 27 -38
24 -57 -3 -16 16 -53 27 -53 4 0 29 31 55 69 47 68 48 69 32 100 -19 35 -30
37 -123 13z m57 -67 c-12 -15 -30 -12 -30 5 0 8 31 19 39 13 2 -1 -2 -9 -9
-18z"/>
<path d="M1041 3316 c-13 -7 -41 -42 -62 -77 -43 -73 -44 -69 43 -117 l56 -31
15 22 c31 49 57 108 57 132 0 28 -49 85 -72 85 -7 -1 -24 -7 -37 -14z m40 -66
c21 -12 24 -32 9 -60 -10 -18 -12 -18 -40 -2 -33 19 -35 24 -20 53 12 22 23
24 51 9z"/>
<path d="M3972 3134 c-53 -31 -62 -39 -56 -58 10 -32 20 -39 42 -27 17 9 22 8
27 -10 5 -15 1 -25 -13 -35 -18 -12 -19 -19 -11 -43 8 -22 15 -28 30 -24 11 3
24 14 30 25 7 13 16 17 30 13 32 -11 61 22 53 59 -9 43 -51 136 -61 136 -4 -1
-36 -17 -71 -36z m88 -86 c0 -12 -28 -10 -35 2 -4 6 -4 19 0 28 6 16 8 15 21
-2 8 -11 14 -23 14 -28z"/>
<path d="M850 3004 c-13 -38 -5 -53 28 -54 15 0 15 -2 2 -34 -8 -23 -12 -25
-36 -16 -15 6 -28 9 -29 8 -9 -9 -16 -78 -9 -78 5 0 39 -9 76 -19 l67 -19 10
30 c10 28 9 31 -19 41 -31 12 -36 22 -21 46 6 9 18 11 38 7 25 -6 31 -3 41 19
7 14 12 28 12 30 0 3 -30 19 -67 37 -38 18 -71 34 -75 35 -3 2 -12 -12 -18
-33z"/>
<path d="M2218 2958 c33 -37 28 -48 -22 -48 -39 0 -45 3 -56 30 -12 28 -29 38
-43 24 -3 -4 1 -17 10 -31 19 -28 10 -40 -32 -45 -24 -2 -30 1 -35 22 -3 14
-14 26 -24 28 -18 4 -18 -5 1 -55 3 -7 -7 -17 -22 -23 -39 -15 -45 -13 -45 16
0 42 -24 22 -31 -25 -8 -58 -49 -87 -49 -35 0 22 -2 25 -15 14 -8 -7 -15 -29
-15 -49 0 -27 -7 -43 -25 -59 -16 -14 -25 -32 -25 -49 l1 -28 14 26 c37 69 66
26 33 -49 -13 -28 -20 -65 -19 -92 1 -50 48 -155 82 -185 20 -19 20 -19 12 10
-13 49 -7 115 14 143 13 17 37 31 73 40 29 7 78 29 109 49 30 20 74 44 97 53
22 10 50 30 61 44 l21 26 6 -39 c7 -43 41 -99 71 -115 11 -6 37 -21 58 -33 41
-26 41 -26 52 39 5 36 27 68 45 68 4 0 18 -8 30 -18 18 -14 24 -32 28 -75 4
-54 3 -58 -32 -93 -22 -22 -36 -46 -36 -60 0 -14 -7 -39 -16 -55 -15 -29 -14
-33 10 -70 30 -45 31 -52 10 -84 -15 -24 -15 -26 15 -51 35 -29 55 -89 49
-143 -4 -29 3 -46 38 -96 23 -33 58 -75 77 -94 l36 -33 35 70 c47 97 86 152
143 202 71 62 87 68 123 41 l30 -22 0 40 c0 50 -28 69 -119 82 -123 18 -192
68 -216 160 -18 65 -19 121 -4 188 9 42 20 59 70 105 68 63 116 81 197 73 64
-7 114 -36 136 -80 l16 -32 -2 45 c-2 27 -8 45 -15 46 -7 1 -18 2 -25 3 -6 0
-9 4 -6 7 4 3 -2 14 -13 25 -20 20 -26 49 -9 49 5 0 17 -11 26 -25 25 -38 30
-22 6 17 -70 112 -201 166 -338 138 -90 -18 -196 -73 -241 -124 l-37 -43 -42
40 c-22 22 -61 47 -85 56 -26 10 -45 24 -47 35 -3 16 1 17 37 11 24 -4 41 -3
41 3 0 16 -23 30 -64 37 -28 6 -43 16 -55 36 -9 16 -21 29 -28 29 -6 0 -20 3
-30 7 -15 5 -15 2 5 -19z m50 -94 c6 -2 12 -8 12 -14 0 -14 -87 -13 -96 1 -15
24 27 31 84 13z m706 -12 l39 -21 -28 -7 c-15 -4 -42 -2 -59 3 -46 15 -96 16
-96 1 0 -10 -2 -10 -9 0 -7 12 -22 15 -86 22 -17 1 -15 4 10 16 44 21 179 13
229 -14z m-825 4 c15 -18 6 -23 -48 -32 -38 -6 -43 -5 -39 12 3 16 30 30 64
33 6 1 17 -5 23 -13z m-111 -37 c2 -13 -19 -27 -80 -57 -5 -2 -8 6 -8 17 0 13
12 29 33 41 35 22 50 21 55 -1z m-113 -66 c4 -12 -1 -24 -17 -36 -25 -21 -34
-11 -24 28 7 29 31 33 41 8z"/>
<path d="M2868 2853 c7 -3 16 -2 19 1 4 3 -2 6 -13 5 -11 0 -14 -3 -6 -6z"/>
<path d="M4026 2902 c-7 -12 8 -65 20 -69 22 -7 36 15 29 46 -6 30 -36 44 -49
23z"/>
<path d="M4090 2791 c-62 -16 -65 -18 -68 -50 -3 -31 -2 -32 25 -29 23 2 29
-1 31 -19 2 -14 -2 -23 -10 -23 -28 0 -40 -17 -34 -48 6 -24 11 -29 29 -25 12
3 29 12 39 20 11 10 18 11 23 4 11 -18 44 -12 56 11 17 31 0 180 -20 177 -3 0
-35 -9 -71 -18z m55 -86 c0 -10 -6 -20 -12 -22 -8 -3 -13 5 -13 22 0 17 5 25
13 23 6 -3 12 -13 12 -23z"/>
<path d="M841 2734 c-36 -8 -65 -15 -66 -17 -1 -1 -5 -18 -9 -38 -6 -36 -6
-37 63 -78 38 -22 74 -41 80 -41 14 0 14 57 1 65 -13 8 -1 58 17 68 7 4 13 19
13 32 0 29 -6 29 -99 9z m29 -69 c0 -8 -6 -15 -14 -15 -17 0 -28 14 -19 24 12
12 33 6 33 -9z"/>
<path d="M2844 2640 c-12 -5 -24 -16 -27 -24 -6 -15 -4 -15 23 -1 16 8 36 12
44 9 22 -8 20 3 -1 14 -10 6 -27 6 -39 2z"/>
<path d="M3050 2620 c0 -5 6 -10 14 -10 8 0 22 -10 30 -22 9 -12 16 -18 16
-12 0 17 -31 54 -46 54 -8 0 -14 -4 -14 -10z"/>
<path d="M2217 2589 c-12 -10 -17 -18 -10 -19 6 0 15 5 19 11 4 7 20 8 41 4
21 -4 33 -3 29 3 -12 19 -57 20 -79 1z"/>
<path d="M2836 2551 c-4 -5 3 -7 14 -4 11 3 27 0 35 -7 9 -7 15 -8 15 -2 0 19
-54 30 -64 13z"/>
<path d="M4040 2531 c0 -17 5 -33 10 -36 12 -7 13 -62 2 -67 -5 -1 -12 -15
-16 -30 -8 -35 -1 -35 89 1 70 29 70 29 70 67 0 38 -1 39 -65 66 -84 34 -90
34 -90 -1z m94 -60 c3 -5 -4 -11 -16 -14 -25 -7 -33 -3 -23 12 8 13 32 14 39
2z"/>
<path d="M3045 2540 c-3 -5 3 -10 14 -10 12 0 21 5 21 10 0 6 -6 10 -14 10 -8
0 -18 -4 -21 -10z"/>
<path d="M2261 2524 c-12 -9 -21 -20 -21 -26 0 -7 6 -4 14 7 10 14 21 17 50
12 43 -7 46 -3 7 11 -22 8 -34 7 -50 -4z"/>
<path d="M2816 2507 c-9 -31 8 -77 29 -77 18 0 45 34 45 57 0 23 -24 48 -39
39 -5 -3 -7 -15 -4 -26 3 -11 1 -20 -5 -20 -6 0 -12 12 -14 28 l-4 27 -8 -28z"/>
<path d="M880 2480 l0 -39 -61 -7 c-60 -7 -60 -7 -57 -38 l3 -31 75 3 c41 2
77 5 80 7 3 2 4 35 2 74 -3 62 -6 71 -23 71 -15 0 -19 -7 -19 -40z"/>
<path d="M3053 2514 c-7 -3 -9 -12 -6 -20 3 -8 0 -14 -6 -14 -14 0 -15 -27 -1
-35 6 -3 19 -3 31 0 15 5 19 14 17 38 -3 31 -13 39 -35 31z"/>
<path d="M2267 2493 c-24 -23 10 -83 46 -83 16 0 37 28 37 49 0 28 -63 55 -83
34z m31 -25 c-6 -18 -28 -21 -28 -4 0 9 7 16 16 16 9 0 14 -5 12 -12z"/>
<path d="M1946 2474 c-3 -9 -6 -28 -5 -42 1 -25 1 -25 10 6 6 19 19 37 32 42
21 8 21 9 -4 9 -16 1 -29 -6 -33 -15z"/>
<path d="M1995 2410 c-4 -7 2 -9 19 -4 17 4 36 0 54 -10 l27 -17 -24 20 c-25
22 -66 28 -76 11z"/>
<path d="M1998 2376 c-10 -7 -18 -17 -18 -21 0 -4 7 -2 15 5 17 14 50 5 40
-11 -4 -6 -13 -8 -21 -5 -24 9 -15 -13 12 -31 26 -16 27 -16 44 5 10 11 21 18
26 14 4 -4 -3 8 -15 26 -24 34 -53 41 -83 18z"/>
<path d="M2890 2336 c0 -36 12 -46 55 -46 84 0 102 24 28 35 -27 4 -56 11 -65
16 -13 7 -18 6 -18 -5z"/>
<path d="M2250 2305 c-13 -14 -38 -30 -57 -37 -35 -13 -41 -23 -19 -31 11 -4
102 17 124 28 5 3 -11 65 -18 65 -3 0 -17 -11 -30 -25z"/>
<path d="M4027 2309 c-12 -42 -8 -49 23 -49 25 0 30 -4 30 -25 0 -22 -4 -25
-34 -25 -29 0 -34 -4 -39 -27 -3 -16 -4 -29 -3 -31 6 -5 118 -32 136 -32 13 0
20 7 20 19 0 11 3 26 6 35 5 12 0 16 -18 16 -32 0 -36 5 -30 36 4 23 9 25 33
20 24 -5 30 -2 35 19 10 40 -1 55 -43 55 -21 0 -54 3 -74 6 -32 5 -37 3 -42
-17z"/>
<path d="M811 2294 c-48 -61 -1 -194 69 -194 61 0 92 59 71 138 -21 77 -99
108 -140 56z m101 -69 c8 -19 8 -28 -2 -40 -25 -30 -80 -12 -80 25 0 44 63 55
82 15z"/>
<path d="M2335 2172 c-6 -4 -15 -20 -20 -37 -7 -20 -20 -33 -40 -39 -17 -5
-37 -11 -45 -13 -11 -4 -10 -8 8 -16 18 -8 22 -18 22 -60 0 -41 3 -48 16 -43
9 3 18 6 20 6 2 0 4 18 4 39 0 30 7 46 30 69 22 23 30 40 30 66 0 36 -6 42
-25 28z"/>
<path d="M2198 2115 c3 -20 7 -23 18 -14 11 9 11 15 3 25 -18 21 -27 17 -21
-11z"/>
<path d="M957 2055 l-27 -55 -40 20 c-22 11 -40 17 -40 13 0 -21 43 -75 68
-84 25 -10 26 -12 10 -23 -22 -16 -22 -25 0 -54 l18 -24 62 39 c63 39 71 55
48 86 -12 16 -17 16 -35 6 -30 -19 -38 -3 -17 35 17 31 17 36 2 65 -9 17 -18
31 -19 31 -2 0 -15 -25 -30 -55z"/>
<path d="M3976 2074 c-11 -30 -6 -42 24 -53 40 -14 38 -21 -5 -14 -52 8 -59
-21 -14 -59 l34 -29 -39 16 c-22 8 -40 14 -41 13 -6 -8 -25 -47 -25 -52 0 -8
117 -66 133 -66 14 0 37 40 37 66 0 8 -15 28 -32 44 l-33 31 45 -3 c39 -3 46
0 56 22 27 55 24 61 -46 81 -80 23 -86 23 -94 3z"/>
<path d="M1584 1998 c-4 -7 -4 -10 1 -6 4 4 15 2 24 -5 14 -11 14 -10 2 6 -16
20 -18 21 -27 5z"/>
<path d="M1958 1963 c7 -3 16 -2 19 1 4 3 -2 6 -13 5 -11 0 -14 -3 -6 -6z"/>
<path d="M1873 1953 c9 -2 23 -2 30 0 6 3 -1 5 -18 5 -16 0 -22 -2 -12 -5z"/>
<path d="M1793 1943 c9 -2 23 -2 30 0 6 3 -1 5 -18 5 -16 0 -22 -2 -12 -5z"/>
<path d="M3174 1940 c-12 -5 -26 -15 -30 -22 -6 -11 -5 -11 8 0 14 11 22 11
46 -2 34 -17 77 -66 87 -96 5 -17 10 -19 21 -9 25 20 15 50 -30 95 -43 44 -62
50 -102 34z"/>
<path d="M1651 1901 c1 -16 3 -19 6 -9 2 9 16 18 31 20 26 3 26 4 -5 9 -30 5
-33 3 -32 -20z"/>
<path d="M2100 1926 c0 -2 9 -6 20 -9 11 -3 18 -1 14 4 -5 9 -34 13 -34 5z"/>
<path d="M2023 1903 c9 -2 25 -2 35 0 9 3 1 5 -18 5 -19 0 -27 -2 -17 -5z"/>
<path d="M1908 1893 c12 -2 30 -2 40 0 9 3 -1 5 -23 4 -22 0 -30 -2 -17 -4z"/>
<path d="M1093 1883 c-19 -7 -16 -26 12 -63 32 -43 13 -55 -20 -14 -18 22 -26
26 -35 17 -10 -9 -7 -19 10 -43 12 -17 19 -34 15 -38 -6 -7 -36 24 -54 56 -9
15 -41 10 -41 -6 0 -12 100 -142 109 -142 4 0 31 24 60 54 l53 53 -47 64 c-55
75 -47 67 -62 62z"/>
<path d="M1610 1887 c0 -5 9 -22 21 -38 17 -25 26 -29 62 -27 l42 1 -43 4
c-33 3 -42 8 -38 19 3 8 -1 14 -9 14 -8 0 -19 8 -24 18 -6 9 -11 13 -11 9z"/>
<path d="M1823 1883 c9 -2 23 -2 30 0 6 3 -1 5 -18 5 -16 0 -22 -2 -12 -5z"/>
<path d="M2157 1777 c-23 -97 -23 -97 18 -97 28 0 36 4 40 23 2 12 11 50 18
85 l14 62 -36 0 -37 0 -17 -73z"/>
<path d="M3876 1828 c-3 -13 -6 -32 -6 -43 0 -11 -19 -37 -42 -58 -50 -45 -47
-49 57 -66 67 -12 70 -12 87 9 10 12 18 29 18 38 0 16 -90 141 -101 142 -4 0
-9 -10 -13 -22z m54 -108 c0 -11 -11 -13 -34 -4 -8 3 -12 12 -9 20 4 10 10 11
24 3 10 -5 19 -14 19 -19z"/>
<path d="M1820 1800 c0 -5 5 -10 11 -10 5 0 7 5 4 10 -3 6 -8 10 -11 10 -2 0
-4 -4 -4 -10z"/>
<path d="M1873 1783 c15 -2 37 -2 50 0 12 2 0 4 -28 4 -27 0 -38 -2 -22 -4z"/>
<path d="M1948 1713 c6 -2 18 -2 25 0 6 3 1 5 -13 5 -14 0 -19 -2 -12 -5z"/>
<path d="M1206 1684 c-9 -8 -16 -20 -16 -25 0 -15 20 -51 42 -75 11 -12 15
-24 10 -28 -5 -3 -24 13 -41 34 -35 44 -51 45 -43 5 5 -30 55 -83 90 -96 65
-25 83 31 32 93 -21 25 -27 39 -19 44 7 4 16 -1 22 -12 6 -10 22 -30 36 -44
l26 -25 3 24 c4 29 -23 68 -68 99 -39 26 -53 27 -74 6z"/>
<path d="M3745 1624 c-16 -25 -16 -27 11 -55 l27 -28 -49 5 c-41 5 -52 3 -68
-14 -18 -21 -17 -22 34 -82 29 -33 56 -60 60 -60 3 0 16 13 27 29 l21 28 -26
27 -27 27 46 -6 c42 -6 48 -5 68 22 l23 28 -39 33 c-21 19 -50 42 -64 53 l-27
19 -17 -26z"/>
<path d="M2786 1633 c-1 -1 0 -18 2 -38 l4 -35 149 0 149 0 0 -145 0 -145 152
0 153 0 -99 99 -98 98 91 79 c50 44 91 82 91 86 0 5 -588 7 -594 1z"/>
<path d="M1678 1617 c6 -7 45 -42 87 -78 41 -35 74 -69 73 -76 -2 -7 -43 -55
-91 -108 l-88 -95 150 0 151 0 0 150 0 149 153 3 152 3 3 33 3 32 -302 0
c-248 0 -300 -2 -291 -13z"/>
<path d="M2077 1482 c-61 -38 -42 -107 36 -133 59 -20 78 -36 52 -45 -10 -4
-26 -2 -36 4 -25 16 -89 15 -89 0 1 -36 52 -68 107 -68 114 1 152 114 52 154
-22 9 -46 16 -54 16 -19 0 -29 20 -17 32 8 8 18 6 36 -6 32 -20 86 -22 86 -2
0 8 -14 26 -31 40 -37 31 -99 35 -142 8z"/>
<path d="M2320 1370 l0 -120 81 0 c79 0 82 1 115 34 29 29 34 41 34 80 0 53
-20 100 -49 116 -11 5 -56 10 -100 10 l-81 0 0 -120z m148 28 c18 -39 -2 -82
-41 -86 -27 -3 -27 -3 -27 58 0 61 0 61 27 58 19 -2 32 -12 41 -30z"/>
<path d="M2620 1370 l0 -120 40 0 40 0 0 120 0 120 -40 0 -40 0 0 -120z"/>
<path d="M2760 1460 c0 -28 3 -30 35 -30 l35 0 0 -90 0 -90 40 0 40 0 0 89 0
90 33 3 c27 2 33 8 35 31 l3 27 -110 0 -111 0 0 -30z"/>
<path d="M1267 1113 c-2 -5 -10 -25 -16 -45 l-13 -38 -61 -1 c-61 0 -62 0 -37
-17 70 -48 72 -53 55 -101 -8 -24 -14 -45 -13 -47 2 -1 23 11 47 28 l44 29 43
-31 c48 -34 51 -32 29 29 l-14 41 47 32 47 33 -62 3 -61 3 -7 39 c-7 39 -19
58 -28 43z"/>
<path d="M3659 1072 l-15 -47 -54 -5 -54 -5 38 -29 c40 -30 40 -33 20 -105
l-7 -23 41 26 c51 32 55 32 96 1 18 -14 36 -25 39 -25 3 0 0 19 -8 41 -8 23
-15 45 -15 49 0 4 19 20 42 36 l42 29 -54 5 c-53 5 -55 6 -70 47 -22 58 -25
59 -41 5z"/>
<path d="M1490 950 c0 -89 0 -90 24 -90 19 0 25 6 28 28 3 23 8 27 38 30 46 5
60 18 60 57 0 47 -26 65 -93 65 l-57 0 0 -90z m95 30 c0 -8 -10 -16 -22 -18
-22 -3 -32 16 -16 32 12 11 38 2 38 -14z"/>
<path d="M1684 1025 c-11 -28 2 -135 18 -151 26 -26 89 -29 118 -6 21 17 25
30 28 96 l4 76 -30 0 -31 0 -3 -67 c-3 -62 -5 -68 -25 -71 -22 -3 -23 0 -23
67 0 69 -1 71 -25 71 -14 0 -28 -7 -31 -15z"/>
<path d="M1900 950 c0 -89 0 -90 25 -90 21 0 25 5 25 31 0 26 3 30 23 27 15
-2 23 -11 25 -30 3 -26 25 -43 42 -33 5 3 8 41 8 85 -1 94 -6 100 -92 100
l-56 0 0 -90z m97 34 c5 -15 -28 -27 -40 -15 -5 5 -6 14 -2 21 8 13 37 9 42
-6z"/>
<path d="M2090 1028 c1 -7 9 -47 19 -88 17 -72 19 -75 49 -78 29 -3 32 -1 32
27 0 60 13 69 25 16 9 -44 13 -50 35 -50 22 0 27 7 42 65 24 92 23 120 -2 120
-22 0 -25 -4 -36 -65 l-8 -40 -9 53 c-9 45 -13 52 -33 52 -19 0 -24 -7 -29
-37 -4 -21 -9 -45 -12 -53 -7 -17 -6 -19 -18 53 -5 31 -10 37 -30 37 -14 0
-25 -6 -25 -12z"/>
<path d="M2397 1033 c-15 -24 -59 -175 -53 -181 4 -3 21 1 37 11 37 21 56 22
75 2 16 -15 55 -21 53 -7 0 4 -13 45 -28 92 -24 76 -29 85 -53 88 -14 2 -28
-1 -31 -5z m43 -100 c0 -7 -7 -13 -15 -13 -16 0 -19 9 -9 35 5 13 8 14 15 3 5
-7 9 -19 9 -25z"/>
<path d="M2550 945 c0 -95 0 -95 25 -95 22 0 25 4 25 35 0 19 4 35 9 35 5 0
19 -16 31 -35 14 -23 29 -35 44 -35 36 0 37 9 5 60 -16 26 -29 51 -29 55 0 4
12 21 27 39 l26 31 -28 3 c-23 3 -35 -3 -57 -30 l-27 -33 -1 33 c0 27 -4 32
-25 32 -25 0 -25 0 -25 -95z"/>
<path d="M2767 956 c-15 -46 -27 -89 -27 -95 0 -16 36 -13 50 4 7 8 23 15 35
15 13 0 25 -7 29 -15 4 -12 57 -23 56 -12 0 1 -13 43 -29 92 -26 85 -30 90
-57 93 -28 3 -30 1 -57 -82z m72 -28 c1 -5 -6 -8 -14 -8 -16 0 -19 9 -8 36 6
16 7 16 14 -2 4 -10 8 -22 8 -26z"/>
<path d="M2958 1034 c-5 -4 -8 -47 -8 -96 0 -87 0 -88 24 -88 21 0 25 6 28 33
2 24 8 32 23 32 15 0 21 -8 23 -32 3 -27 7 -33 27 -33 24 0 25 1 22 80 -2 44
-8 85 -14 91 -13 13 -115 24 -125 13z m90 -56 c-7 -20 -48 -23 -48 -4 0 11 9
16 26 16 16 0 24 -5 22 -12z"/>
<path d="M3147 1033 c-12 -3 -16 -10 -13 -20 3 -8 6 -17 6 -19 0 -2 9 -4 20
-4 17 0 19 -8 22 -67 3 -66 4 -68 31 -71 l27 -3 0 71 c0 68 1 71 23 68 16 -2
23 3 25 20 3 19 -1 22 -30 23 -18 1 -46 2 -63 4 -16 1 -38 0 -48 -2z"/>
<path d="M3360 1020 c-13 -24 -50 -140 -50 -157 0 -18 47 -16 54 2 3 8 15 15
26 15 11 0 23 -7 26 -15 7 -17 54 -21 54 -4 0 19 -42 154 -53 167 -14 18 -45
15 -57 -8z m38 -98 c-18 -8 -25 4 -15 28 l10 25 6 -25 c4 -14 4 -26 -1 -28z"/>
</g>
</svg>
